# xmcd CD database file
# Copyright (C) 1993-1998 Ti Kan
#
# Track frame offsets:
#  150
#  29450
#  53280
#  85127
#  106992
#  129600
#  150305
#  178155
#  195762
#  228322
#
# Disc length: 3417 seconds
#
# Revision: 1
# Processed by: cddbd v1.4b41PL1 Copyright (c) Steve Scherf et al.
# Submitted via: CDWizzard Release:4.35
#
DISCID=6c0d570a
DTITLE=Lisa Lynne Franco - Moonsongs
DYEAR=1900
DGENRE=
TTITLE0=Still the Moon
TTITLE1=Luna de Amor
TTITLE2=Aurora Borealis
TTITLE3=Shining Where You Stand
TTITLE4=Garden Green
TTITLE5=Just the Wine
TTITLE6=Adelina's Arms
TTITLE7=Pavane
TTITLE8=Talking to Me
TTITLE9=Lake of Dreams
EXTD=
EXTT0=
EXTT1=
EXTT2=
EXTT3=
EXTT4=
EXTT5=
EXTT6=
EXTT7=
EXTT8=
EXTT9=
PLAYORDER=
